<?xml version="1.0" encoding="utf-8"?>
<!-- Generator: Adobe Illustrator 23.0.2, SVG Export Plug-In . SVG Version: 6.00 Build 0)  -->
<svg version="1.1" id="Layer_1" xmlns="http://www.w3.org/2000/svg" xmlns:xlink="http://www.w3.org/1999/xlink" x="0px" y="0px"
	 viewBox="0 0 20 19" style="enable-background:new 0 0 20 19;" xml:space="preserve">
<style type="text/css">
	.st0{fill:none;}
	.st1{fill:#8F8F8F;}
</style>
<path class="st0" d="M-2-2h24v24H-2V-2z"/>
<path class="st1" d="M20,7.2l-6-0.5l2.4-2.4l-1.1-1.1L12.5,6L10,0L7.2,6.6L0,7.2L5.5,12l-0.3,1.4L2,16.5l1.1,1.1l1.4-1.4L3.8,19
	l6.2-3.7l6.2,3.7l-1.6-7L20,7.2z M3.9,8.5l4.4-0.4l1.7-4l1.3,3.1l-4.1,4.1L3.9,8.5z M10,13.4l-3.8,2.3l0.4-1.6l5.9-5.9l3.6,0.3
	l-3.3,2.9l1,4.3L10,13.4z"/>
</svg>
