<svg id="Layer_1" data-name="Layer 1" xmlns="http://www.w3.org/2000/svg" viewBox="0 0 220.41 54.07"><defs><style>.cls-1{fill:#fff;stroke:#2e3192;stroke-miterlimit:10;}.cls-2{fill:#0071bc;}.cls-3{fill:#2e3192;}</style></defs><title>pzs photo logo</title><path class="cls-1" d="M10.52,8.06h10.3c7.27,0,12.65,2.52,12.65,10.08,0,7.29-5.4,10.6-12.45,10.6h-4.7v12h-5.8Zm10,16c4.88,0,7.21-1.94,7.21-6S25.2,12.7,20.34,12.7h-4V24.1Z" transform="translate(-10.02 -7.22)"/><path class="cls-1" d="M34.27,37.29,50.09,12.94H35.73V8.06H57.26v3.48L41.43,35.89h16v4.88H34.27Z" transform="translate(-10.02 -7.22)"/><path class="cls-1" d="M60.5,38l2.68-3.67A10.85,10.85,0,0,0,70,37c2.68,0,3.94-1.26,3.94-3,0-2.06-2.66-3-5.28-4-3.22-1.21-6.9-3.06-6.9-7.16,0-4.26,3.44-7.34,8.94-7.34a13.29,13.29,0,0,1,8.17,2.94l-2.65,3.54a9.17,9.17,0,0,0-5.38-2.14c-2.47,0-3.64,1.18-3.64,2.72,0,1.94,2.48,2.68,5.14,3.66,3.32,1.24,7,2.84,7,7.42,0,4.23-3.35,7.63-9.55,7.63A15.35,15.35,0,0,1,60.5,38Z" transform="translate(-10.02 -7.22)"/><path class="cls-2" d="M85,8.06H95.3c7.27,0,12.65,2.52,12.65,10.08,0,7.29-5.4,10.6-12.45,10.6H90.8v12H85Zm10,16c4.88,0,7.2-1.94,7.2-6s-2.54-5.44-7.4-5.44h-4V24.1Z" transform="translate(-10.02 -7.22)"/><path class="cls-2" d="M114.11,8.06h5.8V21.2h13.23V8.06h5.8V40.77h-5.8V26.26H119.91V40.77h-5.8Z" transform="translate(-10.02 -7.22)"/><path class="cls-2" d="M183.89,12.94h-9.45V8.06h24.69v4.88h-9.44V40.77h-5.8Z" transform="translate(-10.02 -7.22)"/><path class="cls-2" d="M201.58,24.28c0-10.58,5.9-16.83,14.42-16.83s14.43,6.28,14.43,16.83S224.52,41.37,216,41.37,201.58,34.86,201.58,24.28Zm22.88,0c0-7.34-3.32-11.78-8.46-11.78s-8.46,4.44-8.46,11.78,3.32,12,8.46,12S224.46,31.62,224.46,24.28Z" transform="translate(-10.02 -7.22)"/><path class="cls-2" d="M21.71,53.45a5.44,5.44,0,0,0-1.43-1.08A3.49,3.49,0,0,0,18.76,52a2.94,2.94,0,0,0-2.25.95,3.46,3.46,0,0,0-.88,2.45,3.36,3.36,0,0,0,.87,2.41,3,3,0,0,0,2.26.93,4.26,4.26,0,0,0,1.65-.35,6.44,6.44,0,0,0,1.64-1l-.17,2.89a5.42,5.42,0,0,1-1.52.71,5.82,5.82,0,0,1-1.72.25,5.68,5.68,0,0,1-1.84-.3,5.32,5.32,0,0,1-1.62-.88,5.5,5.5,0,0,1-1.61-2A6.09,6.09,0,0,1,13,55.45a6.31,6.31,0,0,1,.41-2.27,5.72,5.72,0,0,1,1.2-1.86,5.34,5.34,0,0,1,1.84-1.24,5.59,5.59,0,0,1,2.19-.43,6,6,0,0,1,1.75.25,6.13,6.13,0,0,1,1.59.77Z" transform="translate(-10.02 -7.22)"/><path class="cls-2" d="M22.59,60.88l5.54-11.2h.17l5.42,11.2H31l-.69-1.58h-4.4l-.71,1.58Zm4.07-3.45h2.85L28.1,54Z" transform="translate(-10.02 -7.22)"/><path class="cls-2" d="M34.53,60.88V50h2.8a9.2,9.2,0,0,1,2.05.19,3.68,3.68,0,0,1,1.34.63,3,3,0,0,1,.94,1.1A3.17,3.17,0,0,1,42,53.34,3.23,3.23,0,0,1,40.82,56a4.87,4.87,0,0,1-3.18,1h-.51v4ZM37.48,52h-.35v2.9h.47a2.56,2.56,0,0,0,1.5-.38,1.28,1.28,0,0,0,.52-1.09,1.22,1.22,0,0,0-.51-1.09A3,3,0,0,0,37.48,52Z" transform="translate(-10.02 -7.22)"/><path class="cls-2" d="M45.81,60.88v-8.6H42.36V50h9.49v2.27H48.41v8.6Z" transform="translate(-10.02 -7.22)"/><path class="cls-2" d="M55.55,50v6a3.55,3.55,0,0,0,.53,2.15,1.85,1.85,0,0,0,1.6.72,2,2,0,0,0,1.58-.67,3,3,0,0,0,.54-1.94V50h2.31v6.24a5.25,5.25,0,0,1-1.2,3.67,5,5,0,0,1-6.72,0A5.22,5.22,0,0,1,53,56.26V50Z" transform="translate(-10.02 -7.22)"/><path class="cls-2" d="M64.5,60.88V50h2.79a9.22,9.22,0,0,1,2.08.18,3.56,3.56,0,0,1,1.31.59,3,3,0,0,1,.94,1.07A3,3,0,0,1,72,53.21,3.1,3.1,0,0,1,71.43,55a3.32,3.32,0,0,1-1.5,1.21l3.31,4.67h-3l-2.9-4.26H67v4.26ZM67.44,52H67v3h.54a2.44,2.44,0,0,0,1.5-.39,1.35,1.35,0,0,0,.52-1.14,1.29,1.29,0,0,0-.5-1.13A3,3,0,0,0,67.44,52Z" transform="translate(-10.02 -7.22)"/><path class="cls-2" d="M74.31,60.88V50H76.9V60.88Z" transform="translate(-10.02 -7.22)"/><path class="cls-2" d="M79.43,60.88V49.66h.25L86.45,56V50h2.39V61.29h-.22L81.83,55v5.93Z" transform="translate(-10.02 -7.22)"/><path class="cls-2" d="M100.55,54.85v5.28a11.13,11.13,0,0,1-2.13.83,8,8,0,0,1-2,.27,5.59,5.59,0,0,1-5.76-5.77,5.66,5.66,0,0,1,1.66-4.17,5.76,5.76,0,0,1,4.21-1.64,6.12,6.12,0,0,1,1.82.26,6.42,6.42,0,0,1,1.68.79l-.28,2.72a5.6,5.6,0,0,0-1.51-1.12A3.56,3.56,0,0,0,96.66,52a3.24,3.24,0,0,0-2.42,1,3.37,3.37,0,0,0-1,2.45,3.54,3.54,0,0,0,.92,2.52,3.13,3.13,0,0,0,2.39,1,3.91,3.91,0,0,0,.68-.06c.23,0,.47-.1.72-.17V57.06H95.93V54.85Z" transform="translate(-10.02 -7.22)"/><path class="cls-2" d="M109.35,60.88v-8.6H105.9V50h9.49v2.27H112v8.6Z" transform="translate(-10.02 -7.22)"/><path class="cls-2" d="M116.63,60.88V50h2.56v4h4.2V50h2.54V60.88h-2.54V56.32h-4.2v4.56Z" transform="translate(-10.02 -7.22)"/><path class="cls-2" d="M128.44,60.88V50h6.69v2.24H131v2h3.58v2.22H131v2.15h4.24v2.29Z" transform="translate(-10.02 -7.22)"/><path class="cls-2" d="M139.9,60.88l5.54-11.2h.17L151,60.88h-2.72l-.69-1.58h-4.4l-.71,1.58ZM144,57.43h2.85L145.41,54Z" transform="translate(-10.02 -7.22)"/><path class="cls-2" d="M151.84,60.88V50h2.89a7.15,7.15,0,0,1,4.76,1.46,4.93,4.93,0,0,1,1.73,4,5,5,0,0,1-2.69,4.61,5.53,5.53,0,0,1-1.63.63,10.22,10.22,0,0,1-2.17.19Zm2.57-2.33H155a4,4,0,0,0,2.67-.83,2.84,2.84,0,0,0,1-2.27,2.91,2.91,0,0,0-1-2.29,4,4,0,0,0-2.67-.83h-.56Z" transform="translate(-10.02 -7.22)"/><path class="cls-2" d="M162.14,60.88l2.26-11.22h.18l4.1,7.08,3.87-7.08h.2L175,60.88h-2.47l-.92-5-2.92,5.36h-.17l-3.13-5.44-.95,5Z" transform="translate(-10.02 -7.22)"/><path class="cls-2" d="M176.63,60.88V50h2.59V60.88Z" transform="translate(-10.02 -7.22)"/><path class="cls-2" d="M181.75,60.88V50h2.8a9.28,9.28,0,0,1,2.08.18,3.64,3.64,0,0,1,1.31.59,3.1,3.1,0,0,1,.94,1.07,2.94,2.94,0,0,1,.33,1.36,3.09,3.09,0,0,1-.52,1.79,3.43,3.43,0,0,1-1.5,1.21l3.31,4.67h-3l-2.9-4.26h-.37v4.26ZM184.7,52h-.43v3h.55a2.48,2.48,0,0,0,1.5-.39,1.38,1.38,0,0,0,.52-1.14,1.27,1.27,0,0,0-.51-1.13A2.94,2.94,0,0,0,184.7,52Z" transform="translate(-10.02 -7.22)"/><path class="cls-2" d="M189.83,60.88l5.54-11.2h.17L201,60.88h-2.72l-.69-1.58h-4.4l-.71,1.58Zm4.07-3.45h2.85L195.34,54Z" transform="translate(-10.02 -7.22)"/><path class="cls-2" d="M201.77,60.88V50h3.36a4.88,4.88,0,0,1,2.87.7,2.36,2.36,0,0,1,1,2,2.31,2.31,0,0,1-.44,1.42,2.94,2.94,0,0,1-1.34.9,2.65,2.65,0,0,1,1.55.93,2.59,2.59,0,0,1,.56,1.71,2.68,2.68,0,0,1-1.15,2.36,6.08,6.08,0,0,1-3.43.8Zm2.36-6.57H205a1.85,1.85,0,0,0,1.19-.34,1.1,1.1,0,0,0,.43-.94,1,1,0,0,0-.41-.89,2.26,2.26,0,0,0-1.27-.28h-.81Zm0,4.61h1.08a1.81,1.81,0,0,0,1.23-.39,1.28,1.28,0,0,0,.44-1.05,1.21,1.21,0,0,0-.43-1,1.89,1.89,0,0,0-1.24-.36h-1.08Z" transform="translate(-10.02 -7.22)"/><path class="cls-2" d="M211.18,60.88V50h2.59v8.54H218v2.33Z" transform="translate(-10.02 -7.22)"/><path class="cls-2" d="M219.28,60.88V50H226v2.24H221.8v2h3.57v2.22H221.8v2.15H226v2.29Z" transform="translate(-10.02 -7.22)"/><path class="cls-3" d="M151,8.77A17,17,0,0,1,163.24,8l1.94,10.43-.1.06Z" transform="translate(-10.02 -7.22)"/><path class="cls-3" d="M167.38,25.1,164.3,8.43a17.07,17.07,0,0,1,9.07,8.3l-5.88,8.41Z" transform="translate(-10.02 -7.22)"/><path class="cls-3" d="M150,9.26l8.7,6-16.58,3A17.12,17.12,0,0,1,150,9.26Z" transform="translate(-10.02 -7.22)"/><path class="cls-3" d="M151.88,40.07c-2.69-.46-7.42-4.69-8.88-7.89l5.9-8.47Z" transform="translate(-10.02 -7.22)"/><path class="cls-3" d="M142.51,31.16a16.59,16.59,0,0,1-.75-11.78l10.06-1.86.06.11Z" transform="translate(-10.02 -7.22)"/><path class="cls-3" d="M164.22,31.46l9.61-13.66a16.51,16.51,0,0,1,.38,11.9l-9.93,1.83Z" transform="translate(-10.02 -7.22)"/><path class="cls-3" d="M164.69,40a17.15,17.15,0,0,1-11.73.53l-1.82-10,13.58,9.38Z" transform="translate(-10.02 -7.22)"/><path class="cls-3" d="M157.7,33.73l16-2.91.07.12a17.22,17.22,0,0,1-7.94,8.54l-8.17-5.66Z" transform="translate(-10.02 -7.22)"/></svg>